<svg xmlns="http://www.w3.org/2000/svg" viewBox="0 0 100 100">
  <defs>
    <linearGradient id="ghostGrad" x1="0%" y1="0%" x2="100%" y2="100%">
      <stop offset="0%" stop-color="#00f2fe" />
      <stop offset="100%" stop-color="#05f3a2" />
    </linearGradient>
  </defs>
  <!-- Background circle -->
  <rect width="100" height="100" rx="22" fill="#070c19" />
  <!-- Ghost shape -->
  <path d="M50 22 C33 22 25 36 25 51 C25 66 30 76 30 76 C30 76 35 71 40 76 C45 81 50 76 50 76 C50 76 55 81 60 76 C65 71 70 76 70 76 C70 76 75 66 75 51 C75 36 67 22 50 22 Z" fill="url(#ghostGrad)" opacity="0.95"/>
  <!-- Eyes -->
  <circle cx="43" cy="46" r="4.5" fill="#070c19" />
  <circle cx="57" cy="46" r="4.5" fill="#070c19" />
  <circle cx="44" cy="45" r="1.5" fill="#fff" />
  <circle cx="58" cy="45" r="1.5" fill="#fff" />
  <!-- Smile -->
  <path d="M46 55 Q50 59 54 55" stroke="#070c19" stroke-width="2" stroke-linecap="round" fill="none"/>
</svg>
